<svg width="772" height="250" viewBox="0 0 772 250" fill="none" xmlns="http://www.w3.org/2000/svg">
<path d="M263.136 126.024C260.661 126.024 258.827 125.555 257.632 124.616C256.437 123.677 255.84 122.397 255.84 120.776L256.736 116.552C256.053 117.661 254.901 118.984 253.28 120.52C251.659 121.971 249.525 123.293 246.88 124.488C244.235 125.597 241.035 126.152 237.28 126.152C233.269 126.152 229.472 125.341 225.888 123.72C222.389 122.013 219.275 119.709 216.544 116.808C213.899 113.821 211.765 110.451 210.144 106.696C208.608 102.856 207.84 98.76 207.84 94.408C207.84 90.2267 208.608 86.3013 210.144 82.632C211.765 78.8773 213.941 75.5493 216.672 72.648C219.403 69.7467 222.517 67.4853 226.016 65.864C229.6 64.1573 233.355 63.304 237.28 63.304C240.779 63.304 243.723 63.7733 246.112 64.712C248.587 65.6507 250.677 66.8453 252.384 68.296C254.091 69.6613 255.499 71.112 256.608 72.648L255.84 68.936C255.84 67.0587 256.437 65.6507 257.632 64.712C258.827 63.688 260.704 63.176 263.264 63.176C265.653 63.176 267.36 63.56 268.384 64.328C269.408 65.0107 270.048 65.992 270.304 67.272C270.56 68.4667 270.688 69.832 270.688 71.368V118.216C270.688 119.667 270.56 120.989 270.304 122.184C270.048 123.379 269.365 124.317 268.256 125C267.232 125.683 265.525 126.024 263.136 126.024ZM239.584 111.176C242.485 111.176 245.088 110.451 247.392 109C249.696 107.549 251.531 105.587 252.896 103.112C254.347 100.552 255.072 97.736 255.072 94.664C255.072 91.336 254.347 88.4347 252.896 85.96C251.445 83.4853 249.525 81.5653 247.136 80.2C244.832 78.7493 242.229 78.024 239.328 78.024C236.171 78.024 233.355 78.792 230.88 80.328C228.405 81.7787 226.443 83.784 224.992 86.344C223.627 88.8187 222.944 91.6347 222.944 94.792C222.944 97.864 223.669 100.637 225.12 103.112C226.571 105.587 228.533 107.549 231.008 109C233.568 110.451 236.427 111.176 239.584 111.176ZM335.755 126.152C332.768 126.152 330.08 125.853 327.691 125.256C325.387 124.659 323.339 123.763 321.547 122.568C319.755 121.288 318.262 119.752 317.067 117.96C315.872 116.168 314.976 114.077 314.379 111.688C313.782 109.213 313.483 106.483 313.483 103.496V41.8C313.483 40.3493 313.611 39.0693 313.867 37.96C314.123 36.7653 314.806 35.8267 315.915 35.144C317.024 34.4613 318.774 34.12 321.163 34.12C323.467 34.12 325.174 34.4613 326.283 35.144C327.392 35.8267 328.075 36.7653 328.331 37.96C328.672 39.0693 328.843 40.3067 328.843 41.672V103.88C328.843 105.075 328.971 106.099 329.227 106.952C329.483 107.805 329.867 108.531 330.379 109.128C330.976 109.725 331.702 110.152 332.555 110.408C333.494 110.664 334.56 110.792 335.755 110.792C337.718 110.792 339.254 111.048 340.363 111.56C341.472 112.072 342.283 112.883 342.795 113.992C343.307 115.101 343.563 116.595 343.563 118.472C343.563 120.264 343.264 121.757 342.667 122.952C342.155 124.061 341.302 124.872 340.107 125.384C338.998 125.896 337.547 126.152 335.755 126.152ZM303.371 126.152C300.555 126.152 298.038 125.853 295.819 125.256C293.6 124.744 291.68 123.891 290.059 122.696C288.438 121.501 287.072 120.008 285.963 118.216C284.939 116.424 284.171 114.333 283.659 111.944C283.147 109.469 282.891 106.653 282.891 103.496V41.8C282.891 40.3493 283.019 39.0693 283.275 37.96C283.531 36.7653 284.214 35.8267 285.323 35.144C286.432 34.4613 288.139 34.12 290.443 34.12C292.832 34.12 294.539 34.4613 295.563 35.144C296.672 35.8267 297.355 36.7653 297.611 37.96C297.952 39.0693 298.123 40.3067 298.123 41.672V103.88C298.123 105.501 298.336 106.824 298.763 107.848C299.275 108.872 299.915 109.64 300.683 110.152C301.451 110.579 302.347 110.792 303.371 110.792C304.992 110.792 306.272 111.048 307.211 111.56C308.15 112.072 308.79 112.883 309.131 113.992C309.558 115.101 309.771 116.595 309.771 118.472C309.771 120.264 309.558 121.757 309.131 122.952C308.704 124.061 308.022 124.872 307.083 125.384C306.144 125.896 304.907 126.152 303.371 126.152ZM383.87 127.048C378.323 127.048 373.459 126.152 369.278 124.36C365.182 122.568 361.726 120.136 358.91 117.064C356.179 113.907 354.089 110.408 352.638 106.568C351.273 102.643 350.59 98.5893 350.59 94.408C350.59 88.264 351.998 82.8027 354.814 78.024C357.63 73.2453 361.513 69.4907 366.462 66.76C371.497 64.0293 377.257 62.664 383.742 62.664C388.35 62.664 392.403 63.3893 395.902 64.84C399.401 66.2907 402.302 68.2107 404.606 70.6C406.995 72.904 408.787 75.464 409.982 78.28C411.262 81.096 411.902 83.8267 411.902 86.472C411.902 90.9947 410.793 94.28 408.574 96.328C406.441 98.376 403.753 99.4 400.51 99.4H366.718C366.803 102.301 367.699 104.819 369.406 106.952C371.198 109.085 373.417 110.749 376.062 111.944C378.793 113.053 381.566 113.608 384.382 113.608C386.515 113.608 388.393 113.48 390.014 113.224C391.721 112.968 393.171 112.669 394.366 112.328C395.561 111.901 396.585 111.475 397.438 111.048C398.377 110.621 399.23 110.237 399.998 109.896C400.766 109.555 401.491 109.341 402.174 109.256C403.113 109.171 404.051 109.384 404.99 109.896C405.929 110.408 406.697 111.304 407.294 112.584C407.806 113.437 408.147 114.248 408.318 115.016C408.574 115.699 408.702 116.381 408.702 117.064C408.702 118.771 407.678 120.392 405.63 121.928C403.582 123.379 400.681 124.573 396.926 125.512C393.257 126.536 388.905 127.048 383.87 127.048ZM366.718 90.312H392.958C394.409 90.312 395.518 90.0987 396.286 89.672C397.054 89.16 397.438 88.136 397.438 86.6C397.438 84.6373 396.841 82.888 395.646 81.352C394.451 79.7307 392.83 78.4933 390.782 77.64C388.734 76.7013 386.345 76.232 383.614 76.232C380.457 76.232 377.598 76.872 375.038 78.152C372.478 79.3467 370.43 81.0107 368.894 83.144C367.443 85.2773 366.718 87.6667 366.718 90.312ZM444.294 127.048C442.075 127.048 439.729 126.792 437.254 126.28C434.779 125.853 432.39 125.213 430.086 124.36C427.782 123.421 425.777 122.355 424.07 121.16C422.449 119.88 421.425 118.472 420.998 116.936C420.657 116.083 420.529 115.272 420.614 114.504C420.699 113.651 420.955 112.797 421.382 111.944C421.809 111.005 422.449 110.067 423.302 109.128C424.07 108.189 424.838 107.677 425.606 107.592C426.459 107.421 427.526 107.677 428.806 108.36C429.915 108.787 431.11 109.341 432.39 110.024C433.755 110.707 435.121 111.389 436.486 112.072C437.937 112.755 439.387 113.309 440.838 113.736C442.374 114.163 443.867 114.376 445.318 114.376C448.475 114.376 450.993 113.864 452.87 112.84C454.747 111.731 455.686 110.195 455.686 108.232C455.686 107.123 455.387 106.141 454.79 105.288C454.193 104.435 453.382 103.752 452.358 103.24C451.419 102.643 450.267 102.131 448.902 101.704C447.622 101.192 446.214 100.765 444.678 100.424C443.227 99.9973 441.691 99.528 440.07 99.016C437.937 98.4187 435.803 97.6933 433.67 96.84C431.537 95.9867 429.617 94.8773 427.91 93.512C426.289 92.1467 424.966 90.44 423.942 88.392C422.918 86.344 422.406 83.784 422.406 80.712C422.406 76.872 423.302 73.6293 425.094 70.984C426.971 68.2533 429.659 66.1627 433.158 64.712C436.657 63.2613 440.881 62.536 445.83 62.536C447.537 62.536 449.158 62.664 450.694 62.92C452.315 63.176 453.851 63.56 455.302 64.072C456.838 64.4987 458.289 65.0533 459.654 65.736C461.105 66.4187 462.47 67.1867 463.75 68.04C465.883 69.2347 466.993 70.6427 467.078 72.264C467.163 73.8 466.566 75.464 465.286 77.256C464.347 78.4507 463.409 79.304 462.47 79.816C461.531 80.2427 460.55 80.2427 459.526 79.816C458.161 79.1333 456.667 78.408 455.046 77.64C453.51 76.7867 451.889 76.0613 450.182 75.464C448.561 74.8667 446.854 74.568 445.062 74.568C443.355 74.568 441.819 74.824 440.454 75.336C439.089 75.848 438.065 76.5733 437.382 77.512C436.699 78.4507 436.358 79.56 436.358 80.84C436.358 82.0347 436.699 83.016 437.382 83.784C438.065 84.552 438.961 85.192 440.07 85.704C441.179 86.216 442.502 86.6853 444.038 87.112C445.574 87.4533 447.195 87.7947 448.902 88.136C451.291 88.648 453.723 89.288 456.198 90.056C458.673 90.824 460.934 91.8907 462.982 93.256C465.115 94.6213 466.822 96.456 468.102 98.76C469.382 100.979 470.022 103.88 470.022 107.464C470.022 113.693 467.718 118.515 463.11 121.928C458.587 125.341 452.315 127.048 444.294 127.048ZM508.676 151.88C505.604 151.88 502.66 151.496 499.844 150.728C497.028 150.045 494.468 149.107 492.164 147.912C489.945 146.717 488.153 145.437 486.788 144.072C485.508 142.707 484.868 141.427 484.868 140.232C484.868 139.037 485.039 138.013 485.38 137.16C485.807 136.307 486.404 135.453 487.172 134.6C488.196 133.576 489.007 132.808 489.604 132.296C490.287 131.784 491.183 131.528 492.292 131.528C493.231 131.528 494.127 131.869 494.98 132.552C495.919 133.235 496.985 134.003 498.18 134.856C499.375 135.709 500.825 136.477 502.532 137.16C504.239 137.843 506.415 138.184 509.06 138.184C511.279 138.184 513.327 137.8 515.204 137.032C517.081 136.264 518.66 135.112 519.94 133.576C521.305 132.125 522.372 130.376 523.14 128.328C523.908 126.28 524.292 123.976 524.292 121.416L524.164 68.424C524.335 66.4613 525.017 65.096 526.212 64.328C527.407 63.4747 529.241 63.048 531.716 63.048C534.02 63.048 535.684 63.3893 536.708 64.072C537.732 64.6693 538.372 65.5653 538.628 66.76C538.884 67.8693 539.012 69.1067 539.012 70.472V122.312C539.012 127.005 538.201 131.187 536.58 134.856C534.959 138.525 532.74 141.597 529.924 144.072C527.108 146.632 523.865 148.552 520.196 149.832C516.612 151.197 512.772 151.88 508.676 151.88ZM507.268 124.616C503.257 124.616 499.503 123.848 496.004 122.312C492.591 120.776 489.561 118.6 486.916 115.784C484.356 112.968 482.308 109.725 480.772 106.056C479.321 102.301 478.596 98.248 478.596 93.896C478.596 89.6293 479.321 85.6613 480.772 81.992C482.308 78.3227 484.356 75.08 486.916 72.264C489.561 69.448 492.591 67.272 496.004 65.736C499.503 64.1147 503.215 63.304 507.14 63.304C510.98 63.304 514.308 64.072 517.124 65.608C520.025 67.0587 522.415 69.1493 524.292 71.88C526.169 74.6107 527.577 77.8533 528.516 81.608C529.54 85.3627 530.052 89.5013 530.052 94.024C530.052 100.253 529.199 105.672 527.492 110.28C525.785 114.888 523.268 118.429 519.94 120.904C516.612 123.379 512.388 124.616 507.268 124.616ZM508.676 110.152C511.577 110.152 514.137 109.469 516.356 108.104C518.66 106.653 520.452 104.691 521.732 102.216C523.097 99.7413 523.78 96.968 523.78 93.896C523.78 90.7387 523.097 87.9653 521.732 85.576C520.452 83.1013 518.66 81.1813 516.356 79.816C514.052 78.4507 511.449 77.768 508.548 77.768C505.647 77.768 503.044 78.4933 500.74 79.944C498.521 81.3093 496.772 83.1867 495.492 85.576C494.212 87.9653 493.572 90.7387 493.572 93.896C493.572 97.0533 494.212 99.8693 495.492 102.344C496.857 104.733 498.649 106.653 500.868 108.104C503.172 109.469 505.775 110.152 508.676 110.152ZM581.471 127.048C577.375 127.048 573.364 126.28 569.439 124.744C565.599 123.123 562.1 120.861 558.943 117.96C555.871 115.059 553.396 111.645 551.519 107.72C549.727 103.795 548.831 99.4853 548.831 94.792C548.831 90.2693 549.684 86.0453 551.391 82.12C553.098 78.1947 555.444 74.7387 558.431 71.752C561.418 68.7653 564.831 66.4613 568.671 64.84C572.596 63.1333 576.778 62.28 581.215 62.28C587.188 62.28 592.607 63.7307 597.471 66.632C602.335 69.448 606.218 73.288 609.119 78.152C612.02 83.016 613.471 88.52 613.471 94.664C613.471 99.528 612.575 103.965 610.783 107.976C608.991 111.901 606.559 115.315 603.487 118.216C600.415 121.032 596.959 123.208 593.119 124.744C589.364 126.28 585.482 127.048 581.471 127.048ZM581.215 111.944C584.031 111.944 586.719 111.261 589.279 109.896C591.924 108.445 594.058 106.397 595.679 103.752C597.386 101.107 598.239 97.992 598.239 94.408C598.239 91.08 597.471 88.136 595.935 85.576C594.484 83.016 592.479 81.0107 589.919 79.56C587.359 78.1093 584.415 77.384 581.087 77.384C577.93 77.384 575.071 78.152 572.511 79.688C569.951 81.1387 567.903 83.1867 566.367 85.832C564.916 88.392 564.191 91.2933 564.191 94.536C564.191 98.12 565.002 101.235 566.623 103.88C568.244 106.44 570.335 108.445 572.895 109.896C575.54 111.261 578.314 111.944 581.215 111.944ZM652.971 127.048C648.875 127.048 644.864 126.28 640.939 124.744C637.099 123.123 633.6 120.861 630.443 117.96C627.371 115.059 624.896 111.645 623.019 107.72C621.227 103.795 620.331 99.4853 620.331 94.792C620.331 90.2693 621.184 86.0453 622.891 82.12C624.598 78.1947 626.944 74.7387 629.931 71.752C632.918 68.7653 636.331 66.4613 640.171 64.84C644.096 63.1333 648.278 62.28 652.715 62.28C658.688 62.28 664.107 63.7307 668.971 66.632C673.835 69.448 677.718 73.288 680.619 78.152C683.52 83.016 684.971 88.52 684.971 94.664C684.971 99.528 684.075 103.965 682.283 107.976C680.491 111.901 678.059 115.315 674.987 118.216C671.915 121.032 668.459 123.208 664.619 124.744C660.864 126.28 656.982 127.048 652.971 127.048ZM652.715 111.944C655.531 111.944 658.219 111.261 660.779 109.896C663.424 108.445 665.558 106.397 667.179 103.752C668.886 101.107 669.739 97.992 669.739 94.408C669.739 91.08 668.971 88.136 667.435 85.576C665.984 83.016 663.979 81.0107 661.419 79.56C658.859 78.1093 655.915 77.384 652.587 77.384C649.43 77.384 646.571 78.152 644.011 79.688C641.451 81.1387 639.403 83.1867 637.867 85.832C636.416 88.392 635.691 91.2933 635.691 94.536C635.691 98.12 636.502 101.235 638.123 103.88C639.744 106.44 641.835 108.445 644.395 109.896C647.04 111.261 649.814 111.944 652.715 111.944ZM722.167 126.152C718.242 126.152 714.53 125.341 711.031 123.72C707.532 122.099 704.46 119.88 701.815 117.064C699.17 114.163 697.079 110.792 695.543 106.952C694.007 103.027 693.239 98.8453 693.239 94.408C693.239 90.1413 694.007 86.1307 695.543 82.376C697.079 78.536 699.17 75.208 701.815 72.392C704.546 69.4907 707.66 67.2293 711.159 65.608C714.658 63.9867 718.327 63.176 722.167 63.176C726.263 63.176 729.932 63.9867 733.175 65.608C736.418 67.2293 739.148 69.4907 741.367 72.392C743.671 75.208 745.42 78.536 746.615 82.376C747.81 86.1307 748.45 90.184 748.535 94.536C748.535 98.888 747.938 102.984 746.743 106.824C745.634 110.579 743.927 113.907 741.623 116.808C739.404 119.709 736.631 122.013 733.303 123.72C730.06 125.341 726.348 126.152 722.167 126.152ZM724.215 111.176C727.202 111.176 729.847 110.493 732.151 109.128C734.54 107.677 736.418 105.715 737.783 103.24C739.234 100.765 739.959 97.9493 739.959 94.792C739.959 91.5493 739.234 88.6907 737.783 86.216C736.418 83.7413 734.54 81.7787 732.151 80.328C729.847 78.8773 727.202 78.152 724.215 78.152C721.228 78.152 718.54 78.8773 716.151 80.328C713.762 81.6933 711.842 83.656 710.391 86.216C709.026 88.6907 708.343 91.5493 708.343 94.792C708.343 97.9493 709.026 100.765 710.391 103.24C711.842 105.715 713.762 107.677 716.151 109.128C718.626 110.493 721.314 111.176 724.215 111.176ZM747.895 126.152C745.506 126.152 743.756 125.768 742.647 125C741.538 124.147 740.812 122.824 740.471 121.032V42.184C740.471 40.7333 740.556 39.4533 740.727 38.344C740.983 37.1493 741.623 36.2107 742.647 35.528C743.756 34.76 745.463 34.376 747.767 34.376C750.242 34.376 751.991 34.7173 753.015 35.4C754.039 36.0827 754.679 37.0213 754.935 38.216C755.276 39.3253 755.447 40.6053 755.447 42.056V118.344C755.447 119.795 755.319 121.117 755.063 122.312C754.807 123.507 754.124 124.445 753.015 125.128C751.991 125.811 750.284 126.152 747.895 126.152Z" fill="#562CEB"/>
<g style="mix-blend-mode:darken" filter="url(#filter0_d_16_167)">
<mask id="mask0_16_167" style="mask-type:alpha" maskUnits="userSpaceOnUse" x="25" y="52" width="194" height="173">
<path d="M91.4624 207.848C116.511 231.128 155.67 229.676 178.926 204.606L213.714 167.103C220.359 159.94 219.944 148.741 212.787 142.09L134.283 69.1285C109.235 45.8485 70.0759 47.3 46.8197 72.3706L42.1092 77.4487C18.853 102.519 20.306 141.715 45.3545 164.995L91.4624 207.848Z" fill="#562CEB"/>
</mask>
<g mask="url(#mask0_16_167)">
<g style="mix-blend-mode:multiply">
<path d="M89.5237 105.864C114.572 129.144 153.731 127.692 176.987 102.622L211.776 65.119C218.42 57.9559 218.005 46.7571 210.848 40.1057L132.344 -32.8556C107.296 -56.1356 68.1372 -54.6841 44.881 -29.6135L40.1705 -24.5354C16.9143 0.535162 18.3672 39.7311 43.4157 63.0111L89.5237 105.864Z" fill="#562CEB"/>
</g>
</g>
</g>
<g style="mix-blend-mode:multiply" filter="url(#filter1_d_16_167)">
<mask id="mask1_16_167" style="mask-type:alpha" maskUnits="userSpaceOnUse" x="90" y="21" width="158" height="134">
<path d="M201.212 141.717C234.232 132.857 253.833 98.8908 244.993 65.8514L236.763 35.0922C234.237 25.6523 224.541 20.052 215.107 22.5835L132.282 44.8079C102.566 52.7815 84.9258 83.3493 92.8817 113.083C100.837 142.816 131.376 160.456 161.092 152.483L201.212 141.717Z" fill="url(#paint0_linear_16_167)"/>
</mask>
<g mask="url(#mask1_16_167)">
<path d="M126.792 96.9004C159.812 88.0402 179.413 54.0739 170.573 21.0345L162.342 -9.72473C159.817 -19.1646 150.121 -24.7649 140.687 -22.2334L57.8614 -0.00898868C28.1454 7.96465 10.5054 38.5324 18.4612 68.2659C26.4171 97.9995 56.9561 115.639 86.672 107.666L126.792 96.9004Z" fill="url(#paint1_linear_16_167)"/>
</g>
</g>
<defs>
<filter id="filter0_d_16_167" x="21.5747" y="52.5754" width="198.925" height="77.8413" filterUnits="userSpaceOnUse" color-interpolation-filters="sRGB">
<feFlood flood-opacity="0" result="BackgroundImageFix"/>
<feColorMatrix in="SourceAlpha" type="matrix" values="0 0 0 0 0 0 0 0 0 0 0 0 0 0 0 0 0 0 127 0" result="hardAlpha"/>
<feOffset dy="4"/>
<feGaussianBlur stdDeviation="2"/>
<feComposite in2="hardAlpha" operator="out"/>
<feColorMatrix type="matrix" values="0 0 0 0 0 0 0 0 0 0 0 0 0 0 0 0 0 0 0.25 0"/>
<feBlend mode="normal" in2="BackgroundImageFix" result="effect1_dropShadow_16_167"/>
<feBlend mode="normal" in="SourceGraphic" in2="effect1_dropShadow_16_167" result="shape"/>
</filter>
<filter id="filter1_d_16_167" x="86.9729" y="21.9751" width="89.7208" height="95.6067" filterUnits="userSpaceOnUse" color-interpolation-filters="sRGB">
<feFlood flood-opacity="0" result="BackgroundImageFix"/>
<feColorMatrix in="SourceAlpha" type="matrix" values="0 0 0 0 0 0 0 0 0 0 0 0 0 0 0 0 0 0 127 0" result="hardAlpha"/>
<feOffset dy="4"/>
<feGaussianBlur stdDeviation="2"/>
<feComposite in2="hardAlpha" operator="out"/>
<feColorMatrix type="matrix" values="0 0 0 0 0 0 0 0 0 0 0 0 0 0 0 0 0 0 0.25 0"/>
<feBlend mode="normal" in2="BackgroundImageFix" result="effect1_dropShadow_16_167"/>
<feBlend mode="normal" in="SourceGraphic" in2="effect1_dropShadow_16_167" result="shape"/>
</filter>
<linearGradient id="paint0_linear_16_167" x1="243.557" y1="110.527" x2="133.198" y2="13.8872" gradientUnits="userSpaceOnUse">
<stop stop-color="#27E066"/>
<stop offset="1" stop-color="#5D11FF"/>
</linearGradient>
<linearGradient id="paint1_linear_16_167" x1="169.136" y1="65.7103" x2="58.7774" y2="-30.9297" gradientUnits="userSpaceOnUse">
<stop stop-color="#27E066"/>
<stop offset="1" stop-color="#5D11FF"/>
</linearGradient>
</defs>
</svg>
